<svg xmlns="http://www.w3.org/2000/svg" xmlns:xlink="http://www.w3.org/1999/xlink" aria-hidden="true" role="img" class="iconify iconify--logos" width="31.88" height="32" preserveAspectRatio="xMidYMid meet" viewBox="0 0 256 257"><defs><linearGradient id="IconifyId1813088fe1fbc01fb466" x1="-.828%" x2="57.636%" y1="7.652%" y2="78.411%"><stop offset="0%" stop-color="#41D1FF"></stop><stop offset="100%" stop-color="#BD34FE"></stop></linearGradient><linearGradient id="IconifyId1813088fe1fbc01fb467" x1="43.376%" x2="50.316%" y1="2.242%" y2="89.03%"><stop offset="0%" stop-color="#FFEA83"></stop><stop offset="8.333%" stop-color="#FFDD35"></stop><stop offset="100%" stop-color="#FFA800"></stop></linearGradient></defs><path fill="url(#IconifyId1813088fe1fbc01fb466)" d="M255.153 37.938L134.897 252.976c-2.483 4.44-8.862 4.466-11.382.048L.875 37.958c-2.746-4.814 1.371-10.646 6.827-9.67l120.385 21.517a6.537 6.537 0 007.991-5.795l7.163-123.91c.333-5.854 7.217-8.778 11.478-5.036L255.13 29.09c3.736 3.246 2.218 9.28-2.005 11.012l-122.317 52.68a6.537 6.537 0 00-3.275 9.176l17.024 32.887c2.387 4.612-1.77 9.957-6.717 8.747L20.83 137.342c-5.107-1.25-5.758-7.895-1.007-10.047l234.125-108.19c5.15-2.38 10.555 2.946 8.205 8.093l-108.19 234.125c-2.152 4.751-8.797 4.1-10.047-1.007L81.142 108.565c-1.21-4.947 4.135-9.104 8.747-6.717l32.887 17.024a6.537 6.537 0 009.176-3.275l52.68-122.317c1.732-4.223 7.766-5.741 11.012-2.005L255.13 29.09c3.736 3.246 2.218 9.28-2.005 11.012l-122.317 52.68a6.537 6.537 0 00-3.275 9.176l17.024 32.887c2.387 4.612-1.77 9.957-6.717 8.747L20.83 137.342c-5.107-1.25-5.758-7.895-1.007-10.047l234.125-108.19c5.15-2.38 10.555 2.946 8.205 8.093z"></path></svg>
